<?xml version="1.0" encoding="utf-8"?>
<!-- Generator: Adobe Illustrator 26.0.1, SVG Export Plug-In . SVG Version: 6.00 Build 0)  -->
<svg version="1.1" id="Layer_1" xmlns="http://www.w3.org/2000/svg" xmlns:xlink="http://www.w3.org/1999/xlink" x="0px" y="0px"
	 viewBox="0 0 466 466" style="enable-background:new 0 0 466 466;" xml:space="preserve">
<style type="text/css">
	.st0{fill:#FFFFFF;}
</style>
<g>
	<path class="st0" d="M359.86,188.45v-66.24c0-15.3-12.45-27.74-27.76-27.74H61.06c-15.3,0-27.74,12.45-27.74,27.74v198.53
		c0,15.3,12.45,27.74,27.74,27.74h175.13c19.15,29.11,52.09,48.38,89.46,48.38c59.01,0,107.03-48.01,107.03-107.03
		C432.68,242.79,402.15,202.76,359.86,188.45z M61.06,105.82h271.04c9.05,0,16.41,7.35,16.41,16.39v40.44H44.67v-40.44
		C44.67,113.18,52.03,105.82,61.06,105.82z M61.06,337.14c-9.04,0-16.39-7.35-16.39-16.39V174.01h303.84v11.29
		c-7.37-1.61-15.01-2.48-22.86-2.48c-18.89,0-36.63,4.94-52.05,13.56v-0.92h-49.3v11.35h33.93c-24.14,19.64-39.6,49.56-39.6,83.04
		c0,16.97,3.99,33.03,11.05,47.3H61.06z M325.65,385.51c-52.75,0-95.67-42.92-95.67-95.67s42.92-95.67,95.67-95.67
		s95.67,42.92,95.67,95.67S378.41,385.51,325.65,385.51z"/>
	<rect x="70.73" y="195.45" class="st0" width="49.3" height="11.35"/>
	<rect x="147.29" y="195.45" class="st0" width="49.3" height="11.35"/>
	<rect x="70.73" y="246.7" class="st0" width="49.3" height="11.35"/>
	<rect x="147.29" y="246.7" class="st0" width="49.3" height="11.35"/>
	<rect x="70.73" y="297.96" class="st0" width="49.3" height="11.35"/>
	<rect x="147.29" y="297.96" class="st0" width="49.3" height="11.35"/>
	<path class="st0" d="M380.26,321.55l-48.94-34.64v-57.88c0-3.14-2.54-5.68-5.68-5.68s-5.68,2.54-5.68,5.68v63.75l53.73,38.04
		c1,0.71,2.14,1.04,3.27,1.04c1.78,0,3.53-0.83,4.64-2.4C383.43,326.9,382.82,323.36,380.26,321.55z"/>
</g>
</svg>
