<?xml version="1.0" encoding="utf-8"?>
<!-- Generator: Adobe Illustrator 26.0.1, SVG Export Plug-In . SVG Version: 6.00 Build 0)  -->
<svg version="1.1" id="Layer_1" xmlns="http://www.w3.org/2000/svg" xmlns:xlink="http://www.w3.org/1999/xlink" x="0px" y="0px"
	 viewBox="0 0 466 466" style="enable-background:new 0 0 466 466;" xml:space="preserve">
<style type="text/css">
	.st0{fill:#FFFFFF;}
</style>
<g>
	<path class="st0" d="M236.99,130.82c-26.35,0-42.53-9.12-42.53-15.65h-8.41c0,13.72,21.9,24.06,50.94,24.06
		c29.05,0,50.96-10.34,50.96-24.06h-8.41C279.54,121.7,263.35,130.82,236.99,130.82z"/>
	<path class="st0" d="M287.94,84.06C287.94,70.35,266.04,60,237,60c-29.04,0-50.95,10.34-50.95,24.06v15.55h0c0,0.01,0,0.02,0,0.02
		v15.53h8.41v-1.92c9.15,6.5,24.88,10.43,42.53,10.43c17.66,0,33.39-3.92,42.54-10.43v1.92h8.41V99.63c0-0.01,0-0.02,0-0.02h0V84.06
		z M237,68.41c26.36,0,42.54,9.12,42.54,15.65c0,6.54-16.18,15.65-42.54,15.65s-42.54-9.12-42.54-15.65
		C194.46,77.53,210.64,68.41,237,68.41z M277.05,104.41c-5.42,5.4-19.91,10.85-40.06,10.85c-20.14,0-34.62-5.45-40.05-10.85
		c-1.65-1.64-2.48-3.25-2.48-4.79v-1.95c8.96,6.4,24.35,10.46,42.54,10.46s33.58-4.06,42.54-10.46v1.95
		C279.53,101.15,278.69,102.76,277.05,104.41z"/>
	<path class="st0" d="M287.95,243.83L287.95,243.83l0-15.55c0-13.72-21.9-24.06-50.95-24.06c-29.04,0-50.95,10.34-50.95,24.06v15.55
		h0c0,0.01,0,0.02,0,0.02v15.53h0c0,0,0,0,0,0.01h0c0,0.01,0,0.02,0,0.03v15.52h8.41v-1.92c0.44,0.31,0.91,0.61,1.38,0.91
		c0.03,0.02,0.06,0.04,0.09,0.06c0.43,0.27,0.87,0.54,1.32,0.8c0.2,0.12,0.41,0.23,0.62,0.35c0.51,0.28,1.03,0.56,1.56,0.83
		c0.5,0.26,1.02,0.51,1.55,0.75c0.22,0.1,0.44,0.2,0.66,0.3c9.03,4.03,21.36,6.43,35.35,6.43c14,0,26.33-2.41,35.35-6.43
		c0.23-0.1,0.45-0.2,0.68-0.3c0.52-0.24,1.02-0.49,1.52-0.74c0.55-0.28,1.09-0.57,1.61-0.86c0.2-0.11,0.39-0.22,0.59-0.33
		c0.46-0.27,0.9-0.54,1.33-0.81c0.02-0.01,0.04-0.02,0.06-0.04c0.48-0.31,0.96-0.61,1.41-0.93v1.92h8.41v-15.52
		c0-0.01,0-0.02,0-0.03h0c0,0,0,0,0-0.01h0v-15.53C287.94,243.84,287.95,243.83,287.95,243.83z M279.53,259.39
		c0,0.34-0.06,0.69-0.14,1.04c-0.02,0.06-0.02,0.12-0.04,0.18c-0.08,0.3-0.21,0.61-0.36,0.91c-0.06,0.13-0.12,0.25-0.19,0.38
		c-0.15,0.26-0.32,0.53-0.51,0.8c-0.12,0.17-0.25,0.34-0.39,0.51c-0.18,0.22-0.38,0.45-0.59,0.67c-0.62,0.66-1.37,1.31-2.24,1.96
		c-0.05,0.03-0.09,0.07-0.13,0.1c-0.23,0.17-0.48,0.34-0.72,0.51c-0.29,0.2-0.59,0.39-0.91,0.59c-0.1,0.06-0.19,0.12-0.28,0.18
		c-7.08,4.24-19.69,7.82-36.03,7.82c-16.35,0-28.97-3.59-36.05-7.84c-0.04-0.03-0.08-0.05-0.12-0.08c-0.38-0.23-0.74-0.47-1.09-0.7
		c-0.22-0.15-0.44-0.3-0.65-0.46c-0.1-0.07-0.18-0.14-0.27-0.21c-0.5-0.38-0.97-0.76-1.38-1.14c-0.01-0.01-0.03-0.02-0.04-0.04
		c-0.24-0.22-0.46-0.43-0.67-0.65c-0.22-0.23-0.43-0.46-0.62-0.7c-0.15-0.19-0.3-0.38-0.43-0.56c-0.17-0.25-0.34-0.49-0.47-0.74
		c-0.08-0.15-0.15-0.29-0.22-0.44c-0.14-0.29-0.26-0.58-0.34-0.87c-0.02-0.07-0.03-0.13-0.04-0.2c-0.08-0.35-0.14-0.69-0.14-1.03
		v-0.01v-1.92c9.15,6.5,24.88,10.43,42.53,10.43c17.66,0,33.38-3.92,42.54-10.43V259.39L279.53,259.39z M277.05,248.63
		c-5.42,5.4-19.91,10.85-40.06,10.85c-20.14,0-34.62-5.45-40.05-10.86c-1.65-1.64-2.48-3.25-2.48-4.79v0v-1.95
		c8.96,6.4,24.35,10.46,42.54,10.46s33.58-4.06,42.54-10.46v1.95v0C279.53,245.37,278.69,246.98,277.05,248.63z M237,212.63
		c26.36,0,42.54,9.12,42.54,15.65s-16.18,15.65-42.54,15.65s-42.54-9.12-42.54-15.65S210.64,212.63,237,212.63z"/>
	<path class="st0" d="M236.99,290.59c-26.35,0-42.53-9.12-42.53-15.65h-8.41c0,13.72,21.9,24.06,50.94,24.06
		c29.05,0,50.96-10.34,50.96-24.06h-8.41C279.54,281.48,263.35,290.59,236.99,290.59z"/>
	<path class="st0" d="M93.9,373.54c-26.35,0-42.53-9.12-42.53-15.65h-8.41c0,13.72,21.9,24.06,50.94,24.06
		c29.05,0,50.96-10.34,50.96-24.06h-8.41C136.45,364.42,120.26,373.54,93.9,373.54z"/>
	<path class="st0" d="M144.86,326.78c0-13.72-21.9-24.06-50.95-24.06c-29.04,0-50.95,10.34-50.95,24.06v15.55h0
		c0,0.01,0,0.02,0,0.02v15.53h8.41v-1.92c9.15,6.5,24.88,10.43,42.53,10.43c17.66,0,33.38-3.92,42.54-10.43v1.92h8.41v-15.53
		c0-0.01,0-0.02,0-0.02h0V326.78z M93.91,311.13c26.36,0,42.54,9.12,42.54,15.65c0,6.54-16.18,15.65-42.54,15.65
		c-26.36,0-42.54-9.12-42.54-15.65C51.37,320.25,67.55,311.13,93.91,311.13z M133.96,347.13c-5.42,5.4-19.91,10.85-40.06,10.85
		c-20.14,0-34.62-5.45-40.05-10.86c-1.65-1.64-2.48-3.25-2.49-4.79v-1.95c8.96,6.4,24.35,10.46,42.54,10.46
		c18.19,0,33.58-4.06,42.54-10.46v1.95C136.44,343.87,135.61,345.49,133.96,347.13z"/>
	<path class="st0" d="M337.96,342.35v15.53h8.41v-1.92c9.15,6.5,24.88,10.43,42.53,10.43c17.66,0,33.38-3.92,42.54-10.43v1.92h8.41
		v-15.51c0-0.02,0-0.03,0-0.05h0v-15.55c0-13.72-21.9-24.06-50.95-24.06c-29.04,0-50.95,10.34-50.95,24.06v15.55h0
		C337.96,342.34,337.96,342.35,337.96,342.35z M428.96,347.13c-5.42,5.4-19.91,10.85-40.06,10.85c-20.14,0-34.62-5.45-40.05-10.85
		c-1.65-1.64-2.48-3.25-2.48-4.79v-1.95c8.96,6.4,24.35,10.46,42.54,10.46c18.19,0,33.58-4.06,42.54-10.46v1.96
		C431.44,343.88,430.61,345.49,428.96,347.13z M388.91,311.13c26.36,0,42.54,9.12,42.54,15.65c0,6.54-16.18,15.65-42.54,15.65
		c-26.36,0-42.54-9.12-42.54-15.65C346.37,320.25,362.56,311.13,388.91,311.13z"/>
	<path class="st0" d="M388.91,373.54c-26.35,0-42.53-9.12-42.53-15.65h-8.41c0,13.72,21.9,24.06,50.94,24.06
		c29.05,0,50.96-10.34,50.96-24.06h-8.41C431.45,364.42,415.27,373.54,388.91,373.54z"/>
	<polygon class="st0" points="242.56,193.87 242.56,169.1 246.21,169.1 237,153.14 227.78,169.1 231.44,169.1 231.44,193.87 	"/>
	<polygon class="st0" points="316.3,311.94 298.78,294.43 290.92,302.29 308.43,319.8 305.85,322.39 323.65,327.16 318.88,309.35
		"/>
	<polygon class="st0" points="175.73,294.43 158.21,311.94 155.63,309.35 150.86,327.16 168.66,322.39 166.08,319.8 183.59,302.29
		"/>
</g>
</svg>
