<?xml version="1.0" encoding="utf-8"?>
<!-- Generator: Adobe Illustrator 26.0.1, SVG Export Plug-In . SVG Version: 6.00 Build 0)  -->
<svg version="1.1" id="Layer_1" xmlns="http://www.w3.org/2000/svg" xmlns:xlink="http://www.w3.org/1999/xlink" x="0px" y="0px"
	 viewBox="0 0 466 466" style="enable-background:new 0 0 466 466;" xml:space="preserve">
<style type="text/css">
	.st0{fill:#FFFFFF;}
</style>
<path class="st0" d="M397.87,55.01c-13.75,0-24.93,11.18-24.93,24.93c0,8.52,4.3,16.05,10.84,20.55l-47.6,122.38
	c-1.2-0.18-2.43-0.3-3.68-0.3c-10.32,0-19.2,6.31-22.98,15.27l-23.7-5.01c1.01-6.32,1.56-12.79,1.56-19.39
	c0-67.32-54.77-122.09-122.09-122.09S43.2,146.12,43.2,213.44c0,42.93,22.29,80.73,55.89,102.5l-20.32,35.12
	c-2.04-0.54-4.16-0.85-6.36-0.85c-13.75,0-24.93,11.18-24.93,24.93s11.18,24.93,24.93,24.93c13.75,0,24.93-11.18,24.93-24.93
	c0-7.25-3.13-13.77-8.09-18.33l20.17-34.87c16.76,8.66,35.74,13.59,55.87,13.59c17.18,0,33.54-3.59,48.39-10.02l77.94,77.94
	c5.18,5.18,12.08,8.04,19.41,8.04c7.33,0,14.22-2.86,19.41-8.04c10.7-10.7,10.7-28.12,0-38.82l-72.18-72.18
	c11.67-13.71,20.38-30.02,25.1-47.93l24.33,5.15c1.1,12.74,11.8,22.77,24.82,22.77c13.75,0,24.93-11.18,24.93-24.93
	c0-8.24-4.03-15.53-10.21-20.07l47.74-122.74c0.95,0.11,1.92,0.18,2.91,0.18c13.75,0,24.93-11.18,24.93-24.93
	S411.62,55.01,397.87,55.01z M72.41,388.12c-7.16,0-12.99-5.83-12.99-12.99s5.83-12.99,12.99-12.99c7.16,0,12.99,5.83,12.99,12.99
	S79.57,388.12,72.41,388.12z M55.14,213.44c0-60.73,49.41-110.15,110.15-110.15s110.15,49.41,110.15,110.15
	c0,5.75-0.45,11.4-1.3,16.92l-22.39-4.74c0.56-3.98,0.87-8.05,0.87-12.18c0-48.15-39.17-87.32-87.32-87.32s-87.32,39.17-87.32,87.32
	c0,30.1,15.3,56.69,38.54,72.39l-11.43,19.77C75.03,285.9,55.14,251.96,55.14,213.44z M152.3,213.44c0-7.16,5.83-12.99,12.99-12.99
	c7.16,0,12.99,5.83,12.99,12.99c0,7.16-5.83,12.99-12.99,12.99C158.13,226.43,152.3,220.6,152.3,213.44z M165.29,238.37
	c9.86,0,18.37-5.77,22.41-14.09l49.86,10.55c-9.24,31.18-38.14,53.99-72.27,53.99c-11.62,0-22.62-2.65-32.46-7.36l25.51-44.1
	C160.55,238,162.87,238.37,165.29,238.37z M190.18,212.6c-0.45-13.35-11.42-24.09-24.89-24.09c-13.75,0-24.93,11.18-24.93,24.93
	c0,7.04,2.94,13.39,7.65,17.93l-25.5,44.09c-19.68-13.62-32.6-36.33-32.6-62.02c0-41.57,33.82-75.38,75.38-75.38
	s75.38,33.82,75.38,75.38c0,3.29-0.23,6.52-0.65,9.7L190.18,212.6z M321.99,395c-2.93,2.93-6.82,4.54-10.97,4.54
	c-4.14,0-8.04-1.61-10.97-4.54l-75.11-75.11c9.17-5.16,17.61-11.47,25.12-18.74l71.92,71.92C328.04,379.12,328.04,388.96,321.99,395
	z M165.29,323.58c-17.95,0-34.9-4.34-49.89-12l11.44-19.77c11.61,5.72,24.66,8.95,38.45,8.95c39.88,0,73.57-26.88,83.98-63.46
	l22.38,4.73C259.02,288.95,216.13,323.58,165.29,323.58z M332.5,260.48c-7.16,0-12.99-5.83-12.99-12.99
	c0-7.16,5.83-12.99,12.99-12.99c7.16,0,12.99,5.83,12.99,12.99C345.49,254.66,339.67,260.48,332.5,260.48z M397.87,92.93
	c-7.16,0-12.99-5.83-12.99-12.99s5.83-12.99,12.99-12.99c7.16,0,12.99,5.83,12.99,12.99S405.03,92.93,397.87,92.93z"/>
</svg>
