<?xml version="1.0" encoding="utf-8"?>
<!-- Generator: Adobe Illustrator 26.0.1, SVG Export Plug-In . SVG Version: 6.00 Build 0)  -->
<svg version="1.1" id="Layer_1" xmlns="http://www.w3.org/2000/svg" xmlns:xlink="http://www.w3.org/1999/xlink" x="0px" y="0px"
	 viewBox="0 0 466 466" style="enable-background:new 0 0 466 466;" xml:space="preserve">
<g>
	<path d="M228.37,132.74c-27.62,0-44.58-9.56-44.58-16.41h-8.81c0,14.38,22.95,25.22,53.39,25.22c30.45,0,53.4-10.84,53.4-25.22
		h-8.81C272.96,123.19,255.99,132.74,228.37,132.74z"/>
	<path d="M281.77,83.74c0-14.38-22.96-25.22-53.4-25.22s-53.4,10.84-53.4,25.22v16.29h0c0,0.01,0,0.02,0,0.03v16.28h8.81v-2.01
		c9.59,6.82,26.07,10.93,44.58,10.93c18.51,0,34.99-4.11,44.59-10.93v2.01h8.81v-16.28c0-0.01,0-0.02,0-0.03h0V83.74z M228.37,67.33
		c27.62,0,44.58,9.55,44.58,16.4s-16.96,16.4-44.58,16.4s-44.58-9.55-44.58-16.4S200.75,67.33,228.37,67.33z M270.35,105.06
		c-5.68,5.66-20.87,11.37-41.98,11.37c-21.11,0-36.29-5.71-41.97-11.38c-1.72-1.72-2.6-3.4-2.6-5.02v-2.05
		c9.39,6.71,25.52,10.96,44.58,10.96s35.19-4.25,44.58-10.96v2.05C272.95,101.65,272.07,103.34,270.35,105.06z"/>
	<path d="M281.77,251.18L281.77,251.18l0-16.29c0-14.38-22.96-25.22-53.4-25.22s-53.4,10.84-53.4,25.22v16.29h0
		c0,0.01,0,0.02,0,0.03v16.28h0c0,0,0,0,0,0.01h0c0,0.01,0,0.02,0,0.03v16.27h8.81v-2.01c0.46,0.33,0.95,0.64,1.45,0.95
		c0.03,0.02,0.06,0.04,0.1,0.06c0.45,0.28,0.91,0.56,1.38,0.84c0.21,0.12,0.43,0.24,0.65,0.36c0.53,0.3,1.08,0.59,1.64,0.87
		c0.53,0.27,1.07,0.53,1.62,0.79c0.23,0.1,0.46,0.21,0.69,0.31c9.46,4.22,22.38,6.74,37.05,6.74c14.67,0,27.59-2.52,37.05-6.74
		c0.24-0.11,0.48-0.21,0.71-0.32c0.54-0.25,1.07-0.51,1.59-0.77c0.58-0.29,1.14-0.59,1.69-0.9c0.21-0.11,0.41-0.23,0.61-0.35
		c0.48-0.28,0.94-0.56,1.4-0.85c0.02-0.01,0.04-0.03,0.06-0.04c0.5-0.32,1.01-0.64,1.47-0.97v2.01h8.81v-16.27c0-0.01,0-0.02,0-0.03
		h0c0,0,0,0,0-0.01h0v-16.28C281.77,251.2,281.77,251.19,281.77,251.18z M272.96,267.49c0,0.36-0.06,0.72-0.15,1.09
		c-0.02,0.06-0.02,0.13-0.04,0.19c-0.09,0.32-0.22,0.64-0.38,0.96c-0.06,0.13-0.12,0.26-0.2,0.4c-0.15,0.28-0.34,0.56-0.54,0.83
		c-0.13,0.18-0.26,0.36-0.41,0.54c-0.19,0.23-0.4,0.47-0.62,0.7c-0.65,0.69-1.43,1.37-2.35,2.05c-0.05,0.04-0.09,0.07-0.14,0.11
		c-0.24,0.18-0.5,0.35-0.76,0.53c-0.31,0.21-0.62,0.41-0.96,0.62c-0.1,0.06-0.19,0.13-0.3,0.19c-7.42,4.44-20.64,8.2-37.77,8.2
		c-17.14,0-30.37-3.77-37.78-8.21c-0.04-0.03-0.08-0.05-0.13-0.08c-0.4-0.24-0.77-0.49-1.14-0.74c-0.23-0.16-0.47-0.32-0.69-0.48
		c-0.1-0.07-0.19-0.15-0.29-0.22c-0.52-0.4-1.01-0.79-1.45-1.19c-0.01-0.01-0.03-0.03-0.04-0.04c-0.25-0.23-0.48-0.46-0.7-0.68
		c-0.23-0.24-0.45-0.49-0.65-0.73c-0.16-0.2-0.31-0.39-0.45-0.59c-0.18-0.26-0.35-0.52-0.5-0.77c-0.09-0.15-0.16-0.31-0.23-0.46
		c-0.14-0.31-0.27-0.61-0.36-0.91c-0.02-0.07-0.03-0.14-0.05-0.21c-0.09-0.36-0.14-0.72-0.14-1.08v-0.01v-2.01
		c9.59,6.82,26.07,10.93,44.58,10.93c18.51,0,34.99-4.11,44.59-10.93V267.49L272.96,267.49z M270.35,256.21
		c-5.68,5.66-20.87,11.37-41.98,11.37c-21.11,0-36.29-5.71-41.97-11.38c-1.72-1.71-2.6-3.4-2.6-5.02v0v-2.04
		c9.39,6.71,25.52,10.96,44.58,10.96s35.19-4.25,44.58-10.96v2.04v0C272.95,252.8,272.07,254.49,270.35,256.21z M228.37,218.48
		c27.62,0,44.58,9.55,44.58,16.4c0,6.85-16.96,16.4-44.58,16.4s-44.58-9.55-44.58-16.4C183.79,228.04,200.75,218.48,228.37,218.48z"
		/>
	<path d="M228.37,300.19c-27.62,0-44.58-9.56-44.58-16.41h-8.81c0,14.38,22.95,25.22,53.39,25.22c30.45,0,53.4-10.84,53.4-25.22
		h-8.81C272.96,290.64,255.99,300.19,228.37,300.19z"/>
	<path d="M78.4,387.13c-27.62,0-44.58-9.56-44.58-16.41h-8.81c0,14.38,22.95,25.22,53.39,25.22c30.44,0,53.4-10.84,53.4-25.22h-8.81
		C122.99,377.58,106.03,387.13,78.4,387.13z"/>
	<path d="M131.81,338.12c0-14.38-22.96-25.22-53.4-25.22c-30.44,0-53.4,10.84-53.4,25.22v16.29h0c0,0.01,0,0.02,0,0.03v16.28h8.81
		v-2.01c9.59,6.82,26.07,10.93,44.58,10.93c18.51,0,34.99-4.11,44.59-10.93v2.01h8.81v-16.28c0-0.01,0-0.02,0-0.03h0V338.12z
		 M78.41,321.72c27.62,0,44.58,9.55,44.58,16.4c0,6.85-16.96,16.4-44.58,16.4c-27.62,0-44.58-9.55-44.58-16.4
		C33.83,331.27,50.79,321.72,78.41,321.72z M120.39,359.45c-5.68,5.66-20.87,11.37-41.98,11.37c-21.11,0-36.29-5.71-41.97-11.38
		c-1.73-1.72-2.6-3.41-2.61-5.02v-2.05c9.39,6.71,25.52,10.96,44.58,10.96c19.06,0,35.19-4.25,44.58-10.96v2.05
		C122.99,356.03,122.11,357.73,120.39,359.45z"/>
	<path d="M334.19,354.44v16.28h8.81v-2.01c9.59,6.82,26.07,10.93,44.58,10.93c18.51,0,34.99-4.11,44.59-10.93v2.01h8.81v-16.25
		c0-0.02,0-0.03,0-0.05h0v-16.29c0-14.38-22.96-25.22-53.4-25.22s-53.4,10.84-53.4,25.22v16.29h0
		C334.19,354.43,334.19,354.44,334.19,354.44z M429.57,359.45c-5.68,5.66-20.87,11.37-41.98,11.37c-21.11,0-36.29-5.71-41.97-11.38
		c-1.72-1.72-2.6-3.41-2.6-5.02v-2.05c9.39,6.71,25.52,10.96,44.58,10.96s35.19-4.25,44.58-10.96v2.06
		C432.17,356.04,431.29,357.73,429.57,359.45z M387.59,321.72c27.62,0,44.58,9.55,44.58,16.4c0,6.85-16.96,16.4-44.58,16.4
		s-44.58-9.55-44.58-16.4C343.01,331.27,359.97,321.72,387.59,321.72z"/>
	<path d="M387.58,387.13c-27.62,0-44.58-9.56-44.58-16.41h-8.81c0,14.38,22.95,25.22,53.39,25.22c30.45,0,53.4-10.84,53.4-25.22
		h-8.81C432.18,377.58,415.21,387.13,387.58,387.13z"/>
	<polygon points="234.2,198.82 234.2,172.87 238.03,172.87 228.37,156.14 218.71,172.87 222.55,172.87 222.55,198.82 	"/>
	<polygon points="311.48,322.57 293.13,304.22 284.89,312.45 303.25,330.81 300.53,333.52 319.19,338.52 314.2,319.86 	"/>
	<polygon points="164.16,304.22 145.8,322.57 143.09,319.86 138.1,338.52 156.75,333.52 154.04,330.81 172.4,312.45 	"/>
</g>
</svg>
