<?xml version="1.0" encoding="utf-8"?>
<!-- Generator: Adobe Illustrator 26.0.1, SVG Export Plug-In . SVG Version: 6.00 Build 0)  -->
<svg version="1.1" id="Layer_1" xmlns="http://www.w3.org/2000/svg" xmlns:xlink="http://www.w3.org/1999/xlink" x="0px" y="0px"
	 viewBox="0 0 466 466" style="enable-background:new 0 0 466 466;" xml:space="preserve">
<style type="text/css">
	.st0{fill:#25C2A0;}
</style>
<g>
	<g>
		<path class="st0" d="M383.3,265.1c-7.3,0-14.2,1.8-20.3,4.9l-19.8-36.7l24.5-45.9c4.9,1.8,10.1,2.9,15.6,2.9
			c24.6,0,44.6-20,44.6-44.6s-20-44.6-44.6-44.6s-44.6,20-44.6,44.6c0,3.4,0.4,6.6,1.1,9.8l-33.1,10.2l-34-63
			c9.5-8.2,15.5-20.2,15.5-33.7c0-24.6-20-44.6-44.6-44.6s-44.6,20-44.6,44.6c0,11,4,21,10.6,28.8l-40.3,50
			c-14.8-9.1-32.2-14.4-50.7-14.4c-53.5,0-97.1,43.6-97.1,97.1s43.6,97.1,97.1,97.1c18.6,0,36-5.3,50.7-14.4l40.3,50
			c-6.6,7.8-10.6,17.8-10.6,28.8c0,24.6,20,44.6,44.6,44.6s44.6-20,44.6-44.6c0-12.2-5-23.3-12.9-31.4l33.6-62.8l30,9.8
			c0,0.8-0.1,1.5-0.1,2.3c0,24.6,20,44.6,44.6,44.6s44.6-20,44.6-44.6C427.9,285.1,407.9,265.1,383.3,265.1z M383.3,113.6
			c17.7,0,32.1,14.4,32.1,32.1s-14.4,32.1-32.1,32.1s-32.1-14.4-32.1-32.1S365.6,113.6,383.3,113.6z M344.3,167.3
			c3.1,5.6,7.3,10.4,12.4,14.1L336.1,220l-23.2-43.1L344.3,167.3z M212.9,207.8l87.7-27l28.4,52.6l-26.2,49.1l-89.9-29.3
			c1.8-7.3,2.7-14.9,2.7-22.7C215.6,222.6,214.6,215,212.9,207.8z M243.6,36.9c17.7,0,32.1,14.4,32.1,32.1S261.3,101,243.6,101
			s-32.1-14.4-32.1-32.1S225.9,36.9,243.6,36.9z M218.9,106.1c7.1,4.7,15.6,7.5,24.7,7.5c6.6,0,12.9-1.5,18.5-4.1l32.4,60
			l-85.4,26.3c-6.2-16.1-16.5-30.2-29.7-40.8L218.9,106.1z M34,230.4c0-46.6,37.9-84.5,84.5-84.5s84.5,37.9,84.5,84.5
			s-37.9,84.5-84.5,84.5S34,277,34,230.4z M243.6,423.9c-17.7,0-32.1-14.4-32.1-32.1s14.4-32.1,32.1-32.1s32.1,14.4,32.1,32.1
			S261.3,423.9,243.6,423.9z M265.1,352.8c-6.4-3.5-13.7-5.6-21.6-5.6c-9.1,0-17.6,2.8-24.7,7.5l-39.4-48.9
			c13.2-10.7,23.5-24.7,29.6-40.7l87.6,28.6L265.1,352.8z M314.9,286.4l21.3-39.8l16.6,30.7c-5.1,4.8-9.1,10.9-11.5,17.7
			L314.9,286.4z M383.3,341.8c-17.7,0-32.1-14.4-32.1-32.1c0-17.7,14.4-32.1,32.1-32.1s32.1,14.4,32.1,32.1
			C415.4,327.4,401,341.8,383.3,341.8z"/>
		<polygon class="st0" points="124.8,181.6 112.2,181.6 112.2,224.1 72.1,224.1 72.1,236.7 112.2,236.7 112.2,280.1 124.8,280.1
			124.8,236.7 162.9,236.7 162.9,224.1 124.8,224.1 		"/>
	</g>
</g>
</svg>
