<svg id="Layer_1" data-name="Layer 1" xmlns="http://www.w3.org/2000/svg" viewBox="0 0 343.22 381.92"><defs><style>.cls-1{fill:#25c2a0;}</style></defs><path class="cls-1" d="M371.78,39.23H94.22A32.87,32.87,0,0,0,61.39,72.06V388.32a32.87,32.87,0,0,0,32.83,32.83H371.78a32.87,32.87,0,0,0,32.83-32.83V72.06A32.87,32.87,0,0,0,371.78,39.23Zm19.54,349.09a19.57,19.57,0,0,1-19.54,19.54H94.22a19.57,19.57,0,0,1-19.54-19.54V72.06A19.57,19.57,0,0,1,94.22,52.52H371.78a19.57,19.57,0,0,1,19.54,19.54Z" transform="translate(-61.39 -39.23)"/><path class="cls-1" d="M283.88,161.77h71.19V83.89H283.88Zm13.29-64.59h44.61v51.3H297.17V97.18Z" transform="translate(-61.39 -39.23)"/><path class="cls-1" d="M283.88,267.54h71.19V189.66H283.88ZM297.17,203h44.61v51.3H297.17V203Z" transform="translate(-61.39 -39.23)"/><path class="cls-1" d="M283.88,373.3h71.19V295.42H283.88Zm13.29-64.59h44.61V360H297.17v-51.3Z" transform="translate(-61.39 -39.23)"/><polygon class="cls-1" points="134.75 150.43 111.62 150.43 111.62 126.81 64.61 126.81 64.61 244.33 111.62 244.33 111.62 228.31 134.75 228.31 176.16 296.06 201.15 296.06 201.15 282.77 183.62 282.77 142.2 215.02 111.62 215.02 111.62 196.01 201.15 196.01 201.15 182.72 111.62 182.72 111.62 163.72 142.2 163.72 183.62 95.96 201.15 95.96 201.15 82.67 176.16 82.67 134.75 150.43"/></svg>
