<?xml version="1.0" encoding="utf-8"?>
<!-- Generator: Adobe Illustrator 26.0.1, SVG Export Plug-In . SVG Version: 6.00 Build 0)  -->
<svg version="1.1" id="Layer_1" xmlns="http://www.w3.org/2000/svg" xmlns:xlink="http://www.w3.org/1999/xlink" x="0px" y="0px"
	 viewBox="0 0 466 466" style="enable-background:new 0 0 466 466;" xml:space="preserve">
<style type="text/css">
	.st0{fill:#25C2A0;}
</style>
<g>
	<g>
		<path class="st0" d="M359.9,188.4v-66.2c0-15.3-12.5-27.7-27.8-27.7h-271c-15.3,0-27.7,12.4-27.7,27.7v198.5
			c0,15.3,12.5,27.7,27.7,27.7h175.1c19.1,29.1,52.1,48.4,89.5,48.4c59,0,107-48,107-107C432.7,242.8,402.1,202.8,359.9,188.4z
			 M61.1,105.8h271c9,0,16.4,7.3,16.4,16.4v40.4H44.7v-40.4C44.7,113.2,52,105.8,61.1,105.8z M61.1,337.1c-9,0-16.4-7.4-16.4-16.4
			V174h303.8v11.3c-7.4-1.6-15-2.5-22.9-2.5c-18.9,0-36.6,4.9-52,13.6v-0.9h-49.3v11.4h33.9c-24.1,19.6-39.6,49.6-39.6,83
			c0,17,4,33,11.1,47.3L61.1,337.1L61.1,337.1z M325.6,385.5c-52.8,0-95.7-42.9-95.7-95.7s42.9-95.7,95.7-95.7s95.7,42.9,95.7,95.7
			S378.4,385.5,325.6,385.5z"/>
		<rect x="70.7" y="195.4" class="st0" width="49.3" height="11.4"/>
		<rect x="147.3" y="195.4" class="st0" width="49.3" height="11.4"/>
		<rect x="70.7" y="246.7" class="st0" width="49.3" height="11.3"/>
		<rect x="147.3" y="246.7" class="st0" width="49.3" height="11.3"/>
		<rect x="70.7" y="298" class="st0" width="49.3" height="11.4"/>
		<rect x="147.3" y="298" class="st0" width="49.3" height="11.4"/>
		<path class="st0" d="M380.3,321.5l-48.9-34.6V229c0-3.1-2.5-5.7-5.7-5.7s-5.7,2.5-5.7,5.7v63.8l53.7,38c1,0.7,2.1,1,3.3,1
			c1.8,0,3.5-0.8,4.6-2.4C383.4,326.9,382.8,323.4,380.3,321.5z"/>
	</g>
</g>
</svg>
