<?xml version="1.0" encoding="utf-8"?>
<!-- Generator: Adobe Illustrator 26.0.1, SVG Export Plug-In . SVG Version: 6.00 Build 0)  -->
<svg version="1.1" id="Layer_1" xmlns="http://www.w3.org/2000/svg" xmlns:xlink="http://www.w3.org/1999/xlink" x="0px" y="0px"
	 viewBox="0 0 466 466" style="enable-background:new 0 0 466 466;" xml:space="preserve">
<style type="text/css">
	.st0{fill:#25C2A0;}
</style>
<path class="st0" d="M397.9,55c-13.8,0-24.9,11.2-24.9,24.9c0,8.5,4.3,16.1,10.8,20.6l-47.6,122.4c-1.2-0.2-2.4-0.3-3.7-0.3
	c-10.3,0-19.2,6.3-23,15.3l-23.7-5c1-6.3,1.6-12.8,1.6-19.4c0-67.3-54.8-122.1-122.1-122.1S43.2,146.1,43.2,213.4
	c0,42.9,22.3,80.7,55.9,102.5l-20.3,35.1c-2-0.5-4.2-0.9-6.4-0.9c-13.8,0-24.9,11.2-24.9,24.9s11.2,24.9,24.9,24.9
	s24.9-11.2,24.9-24.9c0-7.2-3.1-13.8-8.1-18.3l20.2-34.9c16.8,8.7,35.7,13.6,55.9,13.6c17.2,0,33.5-3.6,48.4-10l77.9,77.9
	c5.2,5.2,12.1,8,19.4,8c7.3,0,14.2-2.9,19.4-8c10.7-10.7,10.7-28.1,0-38.8l-72.2-72.2c11.7-13.7,20.4-30,25.1-47.9l24.3,5.1
	c1.1,12.7,11.8,22.8,24.8,22.8c13.8,0,24.9-11.2,24.9-24.9c0-8.2-4-15.5-10.2-20.1L395,104.7c1,0.1,1.9,0.2,2.9,0.2
	c13.8,0,24.9-11.2,24.9-24.9S411.6,55,397.9,55z M72.4,388.1c-7.2,0-13-5.8-13-13s5.8-13,13-13c7.2,0,13,5.8,13,13
	S79.6,388.1,72.4,388.1z M55.1,213.4c0-60.7,49.4-110.2,110.2-110.2s110.1,49.4,110.1,110.2c0,5.8-0.5,11.4-1.3,16.9l-22.4-4.7
	c0.6-4,0.9-8.1,0.9-12.2c0-48.1-39.2-87.3-87.3-87.3S78,165.3,78,213.4c0,30.1,15.3,56.7,38.5,72.4l-11.4,19.8
	C75,285.9,55.1,252,55.1,213.4z M152.3,213.4c0-7.2,5.8-13,13-13s13,5.8,13,13s-5.8,13-13,13C158.1,226.4,152.3,220.6,152.3,213.4z
	 M165.3,238.4c9.9,0,18.4-5.8,22.4-14.1l49.9,10.6c-9.2,31.2-38.1,54-72.3,54c-11.6,0-22.6-2.6-32.5-7.4l25.5-44.1
	C160.6,238,162.9,238.4,165.3,238.4z M190.2,212.6c-0.4-13.4-11.4-24.1-24.9-24.1c-13.8,0-24.9,11.2-24.9,24.9
	c0,7,2.9,13.4,7.6,17.9l-25.5,44.1c-19.7-13.6-32.6-36.3-32.6-62c0-41.6,33.8-75.4,75.4-75.4s75.4,33.8,75.4,75.4
	c0,3.3-0.2,6.5-0.6,9.7L190.2,212.6z M322,395c-2.9,2.9-6.8,4.5-11,4.5c-4.1,0-8-1.6-11-4.5l-75.1-75.1c9.2-5.2,17.6-11.5,25.1-18.7
	l71.9,71.9C328,379.1,328,389,322,395z M165.3,323.6c-17.9,0-34.9-4.3-49.9-12l11.4-19.8c11.6,5.7,24.7,9,38.4,9
	c39.9,0,73.6-26.9,84-63.5l22.4,4.7C259,289,216.1,323.6,165.3,323.6z M332.5,260.5c-7.2,0-13-5.8-13-13s5.8-13,13-13s13,5.8,13,13
	C345.5,254.7,339.7,260.5,332.5,260.5z M397.9,92.9c-7.2,0-13-5.8-13-13s5.8-13,13-13s13,5.8,13,13S405,92.9,397.9,92.9z"/>
</svg>
