<?xml version="1.0" encoding="utf-8"?>
<!-- Generator: Adobe Illustrator 26.0.1, SVG Export Plug-In . SVG Version: 6.00 Build 0)  -->
<svg version="1.1" id="Layer_1" xmlns="http://www.w3.org/2000/svg" xmlns:xlink="http://www.w3.org/1999/xlink" x="0px" y="0px"
	 viewBox="0 0 466 466" style="enable-background:new 0 0 466 466;" xml:space="preserve">
<g>
	<path d="M366.26,49.63H99.74c-17.38,0-31.53,14.14-31.53,31.53v303.69c0,17.38,14.14,31.53,31.53,31.53h266.53
		c17.38,0,31.53-14.14,31.53-31.53V81.16C397.79,63.77,383.65,49.63,366.26,49.63z M385.03,384.84c0,10.35-8.42,18.76-18.76,18.76
		H99.74c-10.35,0-18.76-8.42-18.76-18.76V81.16c0-10.35,8.42-18.76,18.76-18.76h266.53c10.35,0,18.76,8.42,18.76,18.76V384.84z"/>
	<path d="M281.85,167.31h68.36V92.52h-68.36V167.31z M294.62,105.28h42.83v49.26h-42.83V105.28z"/>
	<path d="M281.85,268.87h68.36v-74.78h-68.36V268.87z M294.62,206.84h42.83v49.26h-42.83V206.84z"/>
	<path d="M281.85,370.43h68.36v-74.78h-68.36V370.43z M294.62,308.4h42.83v49.26h-42.83V308.4z"/>
	<polygon points="197.61,194.08 175.39,194.08 175.39,171.4 130.25,171.4 130.25,284.25 175.39,284.25 175.39,268.87 197.61,268.87
		237.37,333.93 261.37,333.93 261.37,321.17 244.53,321.17 204.76,256.1 175.39,256.1 175.39,237.85 261.37,237.85 261.37,225.09
		175.39,225.09 175.39,206.84 204.76,206.84 244.53,141.78 261.37,141.78 261.37,129.02 237.37,129.02 	"/>
</g>
</svg>
