<?xml version="1.0" encoding="utf-8"?>
<!-- Generator: Adobe Illustrator 26.0.1, SVG Export Plug-In . SVG Version: 6.00 Build 0)  -->
<svg version="1.1" id="Layer_1" xmlns="http://www.w3.org/2000/svg" xmlns:xlink="http://www.w3.org/1999/xlink" x="0px" y="0px"
	 viewBox="0 0 466 466" style="enable-background:new 0 0 466 466;" xml:space="preserve">
<path d="M416.39,49.88c-14.19,0-25.73,11.54-25.73,25.73c0,8.8,4.44,16.57,11.19,21.21l-49.13,126.33c-1.24-0.19-2.5-0.31-3.8-0.31
	c-10.66,0-19.82,6.51-23.72,15.77l-24.47-5.18c1.05-6.52,1.61-13.2,1.61-20.01c0-69.49-56.53-126.02-126.02-126.02
	S50.29,143.93,50.29,213.42c0,44.31,23.01,83.33,57.69,105.81l-20.97,36.25c-2.1-0.56-4.3-0.88-6.57-0.88
	c-14.19,0-25.73,11.54-25.73,25.73s11.54,25.73,25.73,25.73c14.19,0,25.73-11.54,25.73-25.73c0-7.49-3.23-14.22-8.35-18.92
	l20.82-35.99c17.3,8.94,36.9,14.03,57.67,14.03c17.74,0,34.62-3.7,49.95-10.35l80.45,80.45c5.35,5.35,12.47,8.3,20.03,8.3
	c7.57,0,14.68-2.95,20.03-8.3c11.05-11.05,11.05-29.02,0-40.07l-74.51-74.51c12.05-14.16,21.04-30.99,25.91-49.48l25.11,5.31
	c1.14,13.15,12.18,23.5,25.62,23.5c14.19,0,25.73-11.54,25.73-25.73c0-8.5-4.16-16.03-10.54-20.72l49.28-126.7
	c0.99,0.12,1.98,0.19,3,0.19c14.19,0,25.73-11.54,25.73-25.73S430.58,49.88,416.39,49.88z M80.44,393.74
	c-7.39,0-13.41-6.01-13.41-13.41s6.01-13.41,13.41-13.41c7.39,0,13.41,6.01,13.41,13.41S87.83,393.74,80.44,393.74z M62.62,213.42
	c0-62.69,51.01-113.7,113.7-113.7s113.7,51,113.7,113.7c0,5.94-0.46,11.77-1.34,17.46l-23.11-4.89c0.58-4.11,0.9-8.31,0.9-12.57
	c0-49.7-40.44-90.14-90.14-90.14s-90.14,40.44-90.14,90.14c0,31.07,15.8,58.51,39.78,74.73l-11.8,20.4
	C83.15,288.22,62.62,253.18,62.62,213.42z M162.91,213.42c0-7.39,6.01-13.41,13.41-13.41c7.39,0,13.41,6.01,13.41,13.41
	s-6.01,13.41-13.41,13.41C168.92,226.82,162.91,220.81,162.91,213.42z M176.31,239.15c10.17,0,18.96-5.95,23.14-14.54l51.47,10.89
	c-9.54,32.18-39.36,55.73-74.6,55.73c-11.99,0-23.35-2.73-33.51-7.6l26.33-45.52C171.42,238.78,173.82,239.15,176.31,239.15z
	 M202,212.55c-0.46-13.79-11.79-24.86-25.69-24.86c-14.19,0-25.73,11.54-25.73,25.73c0,7.27,3.04,13.82,7.9,18.51l-26.32,45.51
	c-20.31-14.05-33.65-37.5-33.65-64.02c0-42.91,34.91-77.81,77.81-77.81s77.81,34.91,77.81,77.81c0,3.4-0.24,6.73-0.67,10.02
	L202,212.55z M338.07,400.83c-3.02,3.02-7.04,4.69-11.32,4.69c-4.28,0-8.3-1.66-11.32-4.69l-77.53-77.53
	c9.47-5.33,18.18-11.84,25.93-19.34l74.23,74.23C344.31,384.44,344.31,394.59,338.07,400.83z M176.31,327.11
	c-18.53,0-36.02-4.48-51.5-12.38l11.81-20.41c11.98,5.9,25.45,9.23,39.69,9.23c41.16,0,75.94-27.74,86.69-65.5l23.1,4.89
	C273.07,291.36,228.8,327.11,176.31,327.11z M348.92,261.98c-7.39,0-13.41-6.01-13.41-13.41s6.01-13.41,13.41-13.41
	c7.39,0,13.41,6.01,13.41,13.41S356.31,261.98,348.92,261.98z M416.39,89.02c-7.39,0-13.41-6.01-13.41-13.41
	c0-7.39,6.01-13.41,13.41-13.41c7.39,0,13.41,6.01,13.41,13.41C429.8,83.01,423.78,89.02,416.39,89.02z"/>
</svg>
