<?xml version="1.0" encoding="utf-8"?>
<!-- Generator: Adobe Illustrator 26.0.1, SVG Export Plug-In . SVG Version: 6.00 Build 0)  -->
<svg version="1.1" id="Layer_1" xmlns="http://www.w3.org/2000/svg" xmlns:xlink="http://www.w3.org/1999/xlink" x="0px" y="0px"
	 viewBox="0 0 466 466" style="enable-background:new 0 0 466 466;" xml:space="preserve">
<style type="text/css">
	.st0{fill:#FFFFFF;}
</style>
<g>
	<path class="st0" d="M320.41,232.79c0-41.38-29.38-77.43-69.86-85.71l-2.58,12.62c34.51,7.06,59.56,37.8,59.56,73.08
		c0,34.73-23.56,64.57-57.29,72.58l2.98,12.54C292.78,308.51,320.41,273.51,320.41,232.79z"/>
	<path class="st0" d="M397.23,256.49c1.12-7.78,1.69-15.73,1.69-23.69c0-8.27-0.62-16.54-1.85-24.64l28.74-11.07l-29.62-79.28
		l-32.42,13.54c-9.51-12.17-20.6-22.92-33.03-32.06l12.9-29.58L266.2,38.65l-14.88,33.8l5.89,2.59l0,0l5.07,2.54l10.7-22.33
		l53.56,21.48l-12.57,28.84l8.75,3.81c12.91,9.44,24.26,20.73,33.76,33.65l3,4.08l29.34-12.26l20.47,54.79l-26.76,10.31l0.98,5.27
		c1.68,9,2.53,18.28,2.53,27.58c0,9.06-0.8,18.09-2.37,26.85l-0.97,5.41l26.46,9.27l-20.22,52.88l-26.66-12.22l-3.07,4.46
		c-10.34,15.03-23.1,27.95-37.93,38.42l-5.79,3.97l13.56,23.57l-54.22,24.76l-9.68-22.51l-11.84,5.09l14.89,34.62l79.07-36.11
		l-14.74-25.63c13.01-9.75,24.46-21.31,34.14-34.44l29.39,13.47l29.87-78.1L397.23,256.49z"/>
	<path class="st0" d="M87.46,89.58v61.21l-47.39,28.74v95.83l44.76,33.95l3.43,57.63l100.45,59.32l50.67-30.23V69.51l-51.21-29.87
		L87.46,89.58z M188.66,411.26L152.5,389.9l45.18-26.06l-6.44-11.16l-51.49,29.7l-39.05-23.06l-2.96-49.73l45.13-25.47l-6.33-11.22
		L91.6,298.27l-38.65-29.32v-38.63l41.21-22.44L88,196.56l-35.05,19.09v-28.87L94,161.89l42.77,24.43v34.18l-46.13,27.03l6.51,11.12
		l46.02-26.97l41.94,25.07v45.51l-48.63,28.09l6.45,11.16l51.71-29.87l31.83-16.29v93.37L188.66,411.26z M226.48,210.63
		l-28.76-16.85l-6.51,11.12l35.27,20.67v55.29l-28.46,14.57v-46l-48.35-28.9v-34.42l48.35-30.83V95.22h-12.89v52.99l-42.09,26.84
		l-42.69-24.38v-53.1l36.43-18.06v41.81h12.89v-48.2l38-18.85l38.81,22.65V210.63z"/>
</g>
</svg>
