<?xml version="1.0" encoding="utf-8"?>
<!-- Generator: Adobe Illustrator 26.0.1, SVG Export Plug-In . SVG Version: 6.00 Build 0)  -->
<svg version="1.1" id="Layer_1" xmlns="http://www.w3.org/2000/svg" xmlns:xlink="http://www.w3.org/1999/xlink" x="0px" y="0px"
	 viewBox="0 0 466 466" style="enable-background:new 0 0 466 466;" xml:space="preserve">
<style type="text/css">
	.st0{fill:#25C2A0;}
</style>
<g>
	<g>
		<path class="st0" d="M237,130.8c-26.4,0-42.5-9.1-42.5-15.7h-8.4c0,13.7,21.9,24.1,50.9,24.1c29.1,0,51-10.3,51-24.1h-8.4
			C279.5,121.7,263.4,130.8,237,130.8z"/>
		<path class="st0" d="M287.9,84.1C287.9,70.3,266,60,237,60s-50.9,10.3-50.9,24.1v15.6l0,0c0,0,0,0,0,0v15.5h8.4v-1.9
			c9.1,6.5,24.9,10.4,42.5,10.4c17.7,0,33.4-3.9,42.5-10.4v1.9h8.4V99.6c0,0,0,0,0,0l0,0V84.1z M237,68.4c26.4,0,42.5,9.1,42.5,15.7
			c0,6.5-16.2,15.7-42.5,15.7s-42.5-9.1-42.5-15.7C194.5,77.5,210.6,68.4,237,68.4z M277,104.4c-5.4,5.4-19.9,10.8-40.1,10.8
			c-20.1,0-34.6-5.4-40.1-10.8c-1.6-1.6-2.5-3.2-2.5-4.8v-1.9c9,6.4,24.4,10.5,42.5,10.5s33.6-4.1,42.5-10.5v1.9
			C279.5,101.2,278.7,102.8,277,104.4z"/>
		<path class="st0" d="M288,243.8L288,243.8v-15.6c0-13.7-21.9-24.1-50.9-24.1c-29,0-50.9,10.3-50.9,24.1v15.6l0,0c0,0,0,0,0,0v15.5
			l0,0c0,0,0,0,0,0l0,0c0,0,0,0,0,0v15.5h8.4V273c0.4,0.3,0.9,0.6,1.4,0.9c0,0,0.1,0,0.1,0.1c0.4,0.3,0.9,0.5,1.3,0.8
			c0.2,0.1,0.4,0.2,0.6,0.4c0.5,0.3,1,0.6,1.6,0.8c0.5,0.3,1,0.5,1.6,0.8c0.2,0.1,0.4,0.2,0.7,0.3c9,4,21.4,6.4,35.3,6.4
			c14,0,26.3-2.4,35.4-6.4c0.2-0.1,0.5-0.2,0.7-0.3c0.5-0.2,1-0.5,1.5-0.7c0.5-0.3,1.1-0.6,1.6-0.9c0.2-0.1,0.4-0.2,0.6-0.3
			c0.5-0.3,0.9-0.5,1.3-0.8c0,0,0,0,0.1,0c0.5-0.3,1-0.6,1.4-0.9v1.9h8.4v-15.5c0,0,0,0,0,0l0,0c0,0,0,0,0,0l0,0L288,243.8
			C287.9,243.8,288,243.8,288,243.8z M279.5,259.4c0,0.3-0.1,0.7-0.1,1c0,0.1,0,0.1,0,0.2c-0.1,0.3-0.2,0.6-0.4,0.9
			c-0.1,0.1-0.1,0.2-0.2,0.4c-0.1,0.3-0.3,0.5-0.5,0.8c-0.1,0.2-0.2,0.3-0.4,0.5c-0.2,0.2-0.4,0.5-0.6,0.7c-0.6,0.7-1.4,1.3-2.2,2
			c0,0-0.1,0.1-0.1,0.1c-0.2,0.2-0.5,0.3-0.7,0.5c-0.3,0.2-0.6,0.4-0.9,0.6c-0.1,0.1-0.2,0.1-0.3,0.2c-7.1,4.2-19.7,7.8-36,7.8
			c-16.4,0-29-3.6-36.1-7.8c0,0-0.1,0-0.1-0.1c-0.4-0.2-0.7-0.5-1.1-0.7c-0.2-0.1-0.4-0.3-0.6-0.5c-0.1-0.1-0.2-0.1-0.3-0.2
			c-0.5-0.4-1-0.8-1.4-1.1c0,0,0,0,0,0c-0.2-0.2-0.5-0.4-0.7-0.6c-0.2-0.2-0.4-0.5-0.6-0.7c-0.1-0.2-0.3-0.4-0.4-0.6
			c-0.2-0.2-0.3-0.5-0.5-0.7c-0.1-0.1-0.1-0.3-0.2-0.4c-0.1-0.3-0.3-0.6-0.3-0.9c0-0.1,0-0.1,0-0.2c-0.1-0.4-0.1-0.7-0.1-1v0v-1.9
			c9.1,6.5,24.9,10.4,42.5,10.4c17.7,0,33.4-3.9,42.5-10.4L279.5,259.4L279.5,259.4z M277,248.6c-5.4,5.4-19.9,10.9-40.1,10.9
			c-20.1,0-34.6-5.4-40.1-10.9c-1.6-1.6-2.5-3.2-2.5-4.8l0,0v-1.9c9,6.4,24.4,10.5,42.5,10.5s33.6-4.1,42.5-10.5v1.9l0,0
			C279.5,245.4,278.7,247,277,248.6z M237,212.6c26.4,0,42.5,9.1,42.5,15.6s-16.2,15.6-42.5,15.6s-42.5-9.1-42.5-15.6
			S210.6,212.6,237,212.6z"/>
		<path class="st0" d="M237,290.6c-26.4,0-42.5-9.1-42.5-15.6h-8.4c0,13.7,21.9,24.1,50.9,24.1c29.1,0,51-10.3,51-24.1h-8.4
			C279.5,281.5,263.4,290.6,237,290.6z"/>
		<path class="st0" d="M93.9,373.5c-26.3,0-42.5-9.1-42.5-15.6H43c0,13.7,21.9,24.1,50.9,24.1c29,0,51-10.3,51-24.1h-8.4
			C136.4,364.4,120.3,373.5,93.9,373.5z"/>
		<path class="st0" d="M144.9,326.8c0-13.7-21.9-24.1-50.9-24.1c-29,0-51,10.3-51,24.1v15.5l0,0c0,0,0,0,0,0v15.5h8.4V356
			c9.2,6.5,24.9,10.4,42.5,10.4c17.7,0,33.4-3.9,42.5-10.4v1.9h8.4v-15.5c0,0,0,0,0,0l0,0L144.9,326.8L144.9,326.8z M93.9,311.1
			c26.4,0,42.5,9.1,42.5,15.6c0,6.5-16.2,15.6-42.5,15.6s-42.5-9.1-42.5-15.6C51.4,320.2,67.6,311.1,93.9,311.1z M134,347.1
			c-5.4,5.4-19.9,10.9-40.1,10.9c-20.1,0-34.6-5.5-40-10.9c-1.7-1.6-2.5-3.2-2.5-4.8v-2c9,6.4,24.3,10.5,42.5,10.5
			s33.6-4.1,42.5-10.5v2C136.4,343.9,135.6,345.5,134,347.1z"/>
		<path class="st0" d="M338,342.4v15.5h8.4V356c9.1,6.5,24.9,10.4,42.5,10.4c17.7,0,33.4-3.9,42.5-10.4v1.9h8.4v-15.5c0,0,0,0,0,0
			l0,0v-15.5c0-13.7-21.9-24.1-51-24.1c-29,0-51,10.3-51,24.1L338,342.4L338,342.4C338,342.3,338,342.4,338,342.4z M429,347.1
			c-5.4,5.4-19.9,10.9-40.1,10.9c-20.1,0-34.6-5.5-40-10.9c-1.6-1.6-2.5-3.2-2.5-4.8v-2c9,6.4,24.4,10.5,42.5,10.5
			s33.6-4.1,42.5-10.5v2C431.4,343.9,430.6,345.5,429,347.1z M388.9,311.1c26.4,0,42.5,9.1,42.5,15.6c0,6.5-16.2,15.6-42.5,15.6
			s-42.5-9.1-42.5-15.6S362.6,311.1,388.9,311.1z"/>
		<path class="st0" d="M388.9,373.5c-26.4,0-42.5-9.1-42.5-15.6H338c0,13.7,21.9,24.1,50.9,24.1c29,0,51-10.3,51-24.1h-8.4
			C431.5,364.4,415.3,373.5,388.9,373.5z"/>
		<polygon class="st0" points="242.6,193.9 242.6,169.1 246.2,169.1 237,153.1 227.8,169.1 231.4,169.1 231.4,193.9 		"/>
		<polygon class="st0" points="316.3,311.9 298.8,294.4 290.9,302.3 308.4,319.8 305.9,322.4 323.6,327.2 318.9,309.4 		"/>
		<polygon class="st0" points="175.7,294.4 158.2,311.9 155.6,309.4 150.9,327.2 168.7,322.4 166.1,319.8 183.6,302.3 		"/>
	</g>
</g>
</svg>
