<?xml version="1.0" encoding="utf-8"?>
<!-- Generator: Adobe Illustrator 26.0.1, SVG Export Plug-In . SVG Version: 6.00 Build 0)  -->
<svg version="1.1" id="Layer_1" xmlns="http://www.w3.org/2000/svg" xmlns:xlink="http://www.w3.org/1999/xlink" x="0px" y="0px"
	 viewBox="0 0 466 466" style="enable-background:new 0 0 466 466;" xml:space="preserve">
<g>
	<path d="M313.25,232.81c0-37.99-26.97-71.09-64.14-78.69l-2.37,11.59c31.68,6.48,54.68,34.7,54.68,67.1
		c0,31.88-21.63,59.29-52.6,66.64l2.73,11.51C287.88,302.33,313.25,270.19,313.25,232.81z"/>
	<path d="M383.78,254.56c1.03-7.15,1.55-14.44,1.55-21.75c0-7.6-0.57-15.18-1.7-22.62l26.39-10.17l-27.19-72.78l-29.76,12.43
		c-8.73-11.18-18.91-21.04-30.32-29.44l11.84-27.15l-71.11-28.51L249.82,85.6l5.4,2.38l0,0l5.4,2.45l9.08-20.62l49.18,19.72
		L307.33,116l8.03,3.5c11.85,8.66,22.27,19.03,30.99,30.9l2.76,3.75l26.94-11.26l18.79,50.3l-24.57,9.46l0.9,4.84
		c1.54,8.26,2.33,16.78,2.33,25.32c0,8.32-0.73,16.61-2.18,24.65l-0.89,4.96l24.29,8.51l-18.57,48.55l-24.48-11.21l-2.82,4.09
		c-9.49,13.8-21.21,25.67-34.82,35.28l-5.32,3.64l12.45,21.64l-49.78,22.73l-8.89-20.67l-10.87,4.67l13.67,31.78l72.6-33.15
		l-13.54-23.53c11.95-8.95,22.46-19.56,31.35-31.62l26.98,12.36l27.42-71.7L383.78,254.56z"/>
	<path d="M99.38,101.32v56.19L55.87,183.9v87.98l41.09,31.17l3.14,52.91l92.22,54.46l46.52-27.75V82.9l-47.01-27.43L99.38,101.32z
		 M192.29,396.66l-33.2-19.61l41.48-23.93l-5.91-10.25l-47.27,27.26l-35.85-21.17l-2.71-45.65l41.44-23.39l-5.82-10.3l-41.27,23.29
		L67.7,266.01v-35.46l37.83-20.6l-5.66-10.39L67.7,217.07v-26.51l37.69-22.85l39.27,22.43v31.38l-42.35,24.82l5.98,10.21
		l42.26-24.76l38.51,23.01v41.78l-44.65,25.79l5.92,10.24l47.47-27.42l29.22-14.96v85.72L192.29,396.66z M227.01,212.46l-26.4-15.47
		l-5.98,10.21l32.39,18.98v50.77l-26.13,13.37v-42.23l-44.39-26.53v-31.6l44.39-28.31V106.5h-11.83v48.65l-38.65,24.64l-39.19-22.38
		v-48.75l33.44-16.59v38.38h11.83V86.21l34.89-17.3l35.64,20.79V212.46z"/>
</g>
</svg>
