<?xml version="1.0" encoding="utf-8"?>
<!-- Generator: Adobe Illustrator 26.0.1, SVG Export Plug-In . SVG Version: 6.00 Build 0)  -->
<svg version="1.1" id="Layer_1" xmlns="http://www.w3.org/2000/svg" xmlns:xlink="http://www.w3.org/1999/xlink" x="0px" y="0px"
	 viewBox="0 0 466 466" style="enable-background:new 0 0 466 466;" xml:space="preserve">
<style type="text/css">
	.st0{fill:#FFFFFF;}
</style>
<g>
	<path class="st0" d="M371.78,39.23H94.22c-18.1,0-32.83,14.73-32.83,32.83v316.26c0,18.1,14.73,32.83,32.83,32.83h277.56
		c18.1,0,32.83-14.73,32.83-32.83V72.06C404.61,53.96,389.88,39.23,371.78,39.23z M391.32,388.32c0,10.77-8.77,19.54-19.54,19.54
		H94.22c-10.77,0-19.54-8.77-19.54-19.54V72.06c0-10.77,8.77-19.54,19.54-19.54h277.56c10.77,0,19.54,8.77,19.54,19.54V388.32z"/>
	<path class="st0" d="M283.88,161.77h71.19V83.89h-71.19V161.77z M297.17,97.18h44.61v51.3h-44.61V97.18z"/>
	<path class="st0" d="M283.88,267.54h71.19v-77.88h-71.19V267.54z M297.17,202.95h44.61v51.3h-44.61V202.95z"/>
	<path class="st0" d="M283.88,373.3h71.19v-77.88h-71.19V373.3z M297.17,308.71h44.61v51.3h-44.61V308.71z"/>
	<polygon class="st0" points="196.14,189.66 173.01,189.66 173.01,166.04 126,166.04 126,283.56 173.01,283.56 173.01,267.54
		196.14,267.54 237.55,335.29 262.54,335.29 262.54,322 245.01,322 203.59,254.25 173.01,254.25 173.01,235.24 262.54,235.24
		262.54,221.95 173.01,221.95 173.01,202.95 203.59,202.95 245.01,135.19 262.54,135.19 262.54,121.9 237.55,121.9 	"/>
</g>
</svg>
