<?xml version="1.0" encoding="utf-8"?>
<!-- Generator: Adobe Illustrator 26.0.1, SVG Export Plug-In . SVG Version: 6.00 Build 0)  -->
<svg version="1.1" id="Layer_1" xmlns="http://www.w3.org/2000/svg" xmlns:xlink="http://www.w3.org/1999/xlink" x="0px" y="0px"
	 viewBox="0 0 466 466" style="enable-background:new 0 0 466 466;" xml:space="preserve">
<style type="text/css">
	.st0{fill:#FFFFFF;}
</style>
<g>
	<path class="st0" d="M383.3,265.07c-7.31,0-14.19,1.8-20.29,4.93l-19.81-36.72l24.49-45.85c4.87,1.82,10.11,2.87,15.6,2.87
		c24.6,0,44.62-20.02,44.62-44.62c0-24.6-20.02-44.62-44.62-44.62c-24.6,0-44.62,20.02-44.62,44.62c0,3.38,0.41,6.65,1.12,9.82
		l-33.07,10.19l-34.01-63.04c9.46-8.19,15.48-20.25,15.48-33.71c0-24.6-20.02-44.62-44.62-44.62c-24.6,0-44.62,20.02-44.62,44.62
		c0,10.96,3.99,20.99,10.56,28.76l-40.32,49.95c-14.78-9.1-32.16-14.36-50.74-14.36c-53.53,0-97.09,43.55-97.09,97.09
		s43.55,97.09,97.09,97.09c18.59,0,35.97-5.26,50.74-14.36l40.32,49.95c-6.58,7.77-10.56,17.81-10.56,28.76
		c0,24.6,20.02,44.62,44.62,44.62c24.6,0,44.62-20.02,44.62-44.62c0-12.22-4.95-23.3-12.93-31.37l33.56-62.84l29.95,9.77
		c-0.04,0.77-0.12,1.53-0.12,2.31c0,24.6,20.02,44.62,44.62,44.62c24.6,0,44.62-20.02,44.62-44.62
		C427.92,285.09,407.91,265.07,383.3,265.07z M383.3,113.62c17.68,0,32.07,14.38,32.07,32.07s-14.39,32.07-32.07,32.07
		s-32.07-14.39-32.07-32.07S365.62,113.62,383.3,113.62z M344.28,167.26c3.09,5.56,7.34,10.36,12.41,14.15l-20.63,38.62
		l-23.24-43.08L344.28,167.26z M212.88,207.75l87.71-27.03l28.37,52.59l-26.23,49.1l-89.88-29.31c1.76-7.29,2.71-14.9,2.71-22.72
		C215.57,222.59,214.62,215.02,212.88,207.75z M243.6,36.88c17.68,0,32.07,14.38,32.07,32.07s-14.39,32.07-32.07,32.07
		s-32.07-14.38-32.07-32.07S225.91,36.88,243.6,36.88z M218.91,106.08c7.07,4.72,15.56,7.48,24.68,7.48c6.63,0,12.9-1.49,18.55-4.09
		l32.36,59.99l-85.35,26.3c-6.17-16.1-16.5-30.16-29.68-40.83L218.91,106.08z M33.95,230.38c0-46.61,37.92-84.53,84.53-84.53
		s84.53,37.92,84.53,84.53s-37.92,84.53-84.53,84.53S33.95,277,33.95,230.38z M243.6,423.89c-17.68,0-32.07-14.38-32.07-32.07
		s14.38-32.07,32.07-32.07s32.07,14.38,32.07,32.07S261.28,423.89,243.6,423.89z M265.15,352.79c-6.4-3.55-13.74-5.58-21.56-5.58
		c-9.12,0-17.61,2.76-24.68,7.48l-39.43-48.85c13.16-10.66,23.47-24.68,29.64-40.74l87.6,28.57L265.15,352.79z M314.86,286.37
		l21.26-39.8l16.58,30.74c-5.12,4.84-9.08,10.88-11.47,17.66L314.86,286.37z M383.3,341.76c-17.68,0-32.07-14.38-32.07-32.07
		c0-17.68,14.38-32.07,32.07-32.07s32.07,14.38,32.07,32.07C415.37,327.37,400.98,341.76,383.3,341.76z"/>
	<polygon class="st0" points="124.76,181.6 112.2,181.6 112.2,224.11 72.07,224.11 72.07,236.66 112.2,236.66 112.2,280.11
		124.76,280.11 124.76,236.66 162.88,236.66 162.88,224.11 124.76,224.11 	"/>
</g>
</svg>
