<?xml version="1.0" encoding="utf-8"?>
<!-- Generator: Adobe Illustrator 26.0.1, SVG Export Plug-In . SVG Version: 6.00 Build 0)  -->
<svg version="1.1" id="Layer_1" xmlns="http://www.w3.org/2000/svg" xmlns:xlink="http://www.w3.org/1999/xlink" x="0px" y="0px"
	 viewBox="0 0 466 466" style="enable-background:new 0 0 466 466;" xml:space="preserve">
<g>
	<path d="M388.95,267.23c-7.22,0-14.01,1.78-20.03,4.87l-19.56-36.25l24.18-45.28c4.8,1.8,9.98,2.83,15.41,2.83
		c24.29,0,44.06-19.76,44.06-44.06c0-24.29-19.76-44.06-44.06-44.06c-24.29,0-44.06,19.76-44.06,44.06c0,3.33,0.4,6.57,1.11,9.7
		l-32.65,10.06l-33.58-62.24c9.34-8.08,15.28-19.99,15.28-33.29c0-24.29-19.76-44.06-44.06-44.06c-24.29,0-44.06,19.76-44.06,44.06
		c0,10.82,3.94,20.72,10.43,28.4l-39.81,49.32c-14.59-8.98-31.75-14.18-50.1-14.18c-52.86,0-95.86,43-95.86,95.86
		s43,95.86,95.86,95.86c18.35,0,35.51-5.19,50.1-14.18l39.81,49.32c-6.49,7.68-10.43,17.58-10.43,28.4
		c0,24.29,19.76,44.06,44.06,44.06c24.29,0,44.06-19.76,44.06-44.06c0-12.07-4.88-23.01-12.77-30.97l33.14-62.05l29.57,9.64
		c-0.04,0.76-0.12,1.51-0.12,2.28c0,24.29,19.76,44.06,44.06,44.06c24.29,0,44.06-19.76,44.06-44.06S413.24,267.23,388.95,267.23z
		 M388.95,117.68c17.46,0,31.66,14.2,31.66,31.66s-14.2,31.66-31.66,31.66c-17.46,0-31.66-14.2-31.66-31.66
		S371.49,117.68,388.95,117.68z M350.41,170.65c3.05,5.49,7.25,10.23,12.25,13.97l-20.37,38.14l-22.95-42.53L350.41,170.65z
		 M220.67,210.64l86.61-26.69l28.01,51.93l-25.9,48.48l-88.75-28.94c1.73-7.2,2.68-14.71,2.68-22.44
		C223.33,225.29,222.39,217.81,220.67,210.64z M251,41.91c17.46,0,31.66,14.2,31.66,31.66s-14.2,31.66-31.66,31.66
		s-31.66-14.2-31.66-31.66S233.54,41.91,251,41.91z M226.63,110.24c6.99,4.66,15.36,7.39,24.37,7.39c6.54,0,12.73-1.47,18.32-4.04
		l31.96,59.24L217,198.8c-6.09-15.9-16.29-29.78-29.31-40.32L226.63,110.24z M43.99,232.98c0-46.02,37.44-83.47,83.47-83.47
		s83.47,37.44,83.47,83.47s-37.44,83.47-83.47,83.47S43.99,279,43.99,232.98z M251,424.05c-17.46,0-31.66-14.2-31.66-31.66
		c0-17.46,14.2-31.66,31.66-31.66s31.66,14.2,31.66,31.66C282.66,409.84,268.46,424.05,251,424.05z M272.29,353.84
		c-6.32-3.5-13.57-5.51-21.29-5.51c-9.01,0-17.39,2.73-24.37,7.39l-38.93-48.23c12.99-10.52,23.18-24.37,29.27-40.23l86.5,28.21
		L272.29,353.84z M321.36,288.26l20.99-39.3l16.38,30.35c-5.06,4.78-8.97,10.74-11.32,17.44L321.36,288.26z M388.95,342.95
		c-17.46,0-31.66-14.2-31.66-31.66c0-17.46,14.2-31.66,31.66-31.66c17.46,0,31.66,14.2,31.66,31.66
		C420.61,328.75,406.41,342.95,388.95,342.95z"/>
	<polygon points="133.66,184.81 121.26,184.81 121.26,226.78 81.63,226.78 81.63,239.18 121.26,239.18 121.26,282.08 133.66,282.08
		133.66,239.18 171.3,239.18 171.3,226.78 133.66,226.78 	"/>
</g>
</svg>
