<svg id="Layer_1" data-name="Layer 1" xmlns="http://www.w3.org/2000/svg" viewBox="0 0 385.86 388.72"><defs><style>.cls-1{fill:#25c2a0;}</style></defs><path class="cls-1" d="M320.41,232.79a87.75,87.75,0,0,0-69.86-85.71L248,159.7a74.62,74.62,0,0,1,2.27,145.66l3,12.54A87.13,87.13,0,0,0,320.41,232.79Z" transform="translate(-40.07 -38.65)"/><path class="cls-1" d="M397.23,256.49a166.61,166.61,0,0,0,1.69-23.69,164.45,164.45,0,0,0-1.85-24.64l28.74-11.07-29.62-79.28-32.42,13.54a168.63,168.63,0,0,0-33-32.06l12.9-29.58L266.2,38.65l-14.88,33.8L257.21,75h0l5.07,2.54L273,55.25l53.56,21.48L314,105.57l8.75,3.81A156.36,156.36,0,0,1,356.48,143l3,4.08,29.34-12.26,20.47,54.79L382.53,200l1,5.27A150.69,150.69,0,0,1,386,232.8a152.58,152.58,0,0,1-2.37,26.85l-1,5.41,26.46,9.27-20.22,52.88L362.28,315l-3.07,4.46a153,153,0,0,1-37.93,38.42l-5.79,4,13.56,23.57-54.22,24.76-9.68-22.51-11.84,5.09,14.89,34.62,79.07-36.11-14.74-25.63a166.11,166.11,0,0,0,34.14-34.44l29.39,13.47,29.87-78.1Z" transform="translate(-40.07 -38.65)"/><path class="cls-1" d="M87.46,89.58v61.21L40.07,179.53v95.83l44.76,33.95,3.43,57.63,100.45,59.32L239.38,396V69.51L188.17,39.64Zm101.2,321.68L152.5,389.9l45.18-26.06-6.44-11.16-51.49,29.7-39-23.06-3-49.73,45.13-25.47-6.33-11.22L91.6,298.27,53,269V230.32l41.21-22.44L88,196.56,53,215.65V186.78L94,161.89l42.77,24.43V220.5l-46.13,27,6.51,11.12,46-27,41.94,25.07v45.51l-48.63,28.09,6.45,11.16,51.71-29.87,31.83-16.29v93.37Zm37.82-200.63-28.76-16.85-6.51,11.12,35.27,20.67v55.29L198,295.43v-46l-48.35-28.9V186.11L198,155.28V95.22H185.13v53L143,175.05l-42.69-24.38V97.57l36.43-18.06v41.81h12.89V73.12l38-18.85,38.81,22.65V210.63Z" transform="translate(-40.07 -38.65)"/></svg>
