<?xml version="1.0" encoding="utf-8"?>
<!-- Generator: Adobe Illustrator 26.0.1, SVG Export Plug-In . SVG Version: 6.00 Build 0)  -->
<svg version="1.1" id="Layer_1" xmlns="http://www.w3.org/2000/svg" xmlns:xlink="http://www.w3.org/1999/xlink" x="0px" y="0px"
	 viewBox="0 0 466 466" style="enable-background:new 0 0 466 466;" xml:space="preserve">
<g>
	<path d="M372.59,194.57v-63.72c0-14.71-11.98-26.69-26.7-26.69H85.17c-14.71,0-26.69,11.97-26.69,26.69v190.97
		c0,14.72,11.97,26.69,26.69,26.69h168.46c18.42,28,50.1,46.53,86.05,46.53c56.77,0,102.95-46.18,102.95-102.95
		C442.63,246.83,413.26,208.33,372.59,194.57z M85.17,115.08h260.72c8.7,0,15.78,7.07,15.78,15.77v38.9H69.4v-38.9
		C69.4,122.16,76.48,115.08,85.17,115.08z M85.17,337.59c-8.69,0-15.76-7.07-15.76-15.77V180.67h292.26v10.86
		c-7.09-1.55-14.44-2.39-21.99-2.39c-18.17,0-35.24,4.75-50.07,13.04v-0.89h-47.42v10.92h32.63
		c-23.22,18.89-38.09,47.68-38.09,79.88c0,16.33,3.84,31.77,10.63,45.5H85.17z M339.68,384.12c-50.74,0-92.03-41.29-92.03-92.03
		s41.29-92.03,92.03-92.03s92.03,41.29,92.03,92.03S390.42,384.12,339.68,384.12z"/>
	<rect x="94.46" y="201.29" width="47.42" height="10.92"/>
	<rect x="168.11" y="201.29" width="47.42" height="10.92"/>
	<rect x="94.46" y="250.6" width="47.42" height="10.92"/>
	<rect x="168.11" y="250.6" width="47.42" height="10.92"/>
	<rect x="94.46" y="299.9" width="47.42" height="10.92"/>
	<rect x="168.11" y="299.9" width="47.42" height="10.92"/>
	<path d="M392.21,322.59l-47.07-33.32v-55.68c0-3.02-2.44-5.46-5.46-5.46s-5.46,2.44-5.46,5.46v61.32l51.68,36.59
		c0.96,0.68,2.06,1,3.15,1c1.71,0,3.4-0.8,4.46-2.31C395.26,327.74,394.67,324.33,392.21,322.59z"/>
</g>
</svg>
